<svg width="89" height="42" viewBox="0 0 89 42" fill="none" xmlns="http://www.w3.org/2000/svg">
<path d="M2.964 37.172C4.18 37.172 4.788 36.756 4.788 35.924C4.788 35.668 4.732 35.452 4.62 35.276C4.516 35.092 4.372 34.936 4.188 34.808C4.004 34.672 3.792 34.556 3.552 34.46C3.32 34.364 3.072 34.268 2.808 34.172C2.504 34.068 2.216 33.952 1.944 33.824C1.672 33.688 1.436 33.532 1.236 33.356C1.036 33.172 0.876 32.956 0.756 32.708C0.644 32.46 0.588 32.16 0.588 31.808C0.588 31.08 0.836 30.512 1.332 30.104C1.828 29.696 2.512 29.492 3.384 29.492C3.888 29.492 4.344 29.548 4.752 29.66C5.168 29.764 5.472 29.88 5.664 30.008L5.292 30.956C5.124 30.852 4.872 30.752 4.536 30.656C4.208 30.552 3.824 30.5 3.384 30.5C3.16 30.5 2.952 30.524 2.76 30.572C2.568 30.62 2.4 30.692 2.256 30.788C2.112 30.884 1.996 31.008 1.908 31.16C1.828 31.304 1.788 31.476 1.788 31.676C1.788 31.9 1.832 32.088 1.92 32.24C2.008 32.392 2.132 32.528 2.292 32.648C2.452 32.76 2.636 32.864 2.844 32.96C3.06 33.056 3.296 33.152 3.552 33.248C3.912 33.392 4.24 33.536 4.536 33.68C4.84 33.824 5.1 33.996 5.316 34.196C5.54 34.396 5.712 34.636 5.832 34.916C5.952 35.188 6.012 35.52 6.012 35.912C6.012 36.64 5.744 37.2 5.208 37.592C4.68 37.984 3.932 38.18 2.964 38.18C2.636 38.18 2.332 38.156 2.052 38.108C1.78 38.068 1.536 38.02 1.32 37.964C1.104 37.9 0.916 37.836 0.756 37.772C0.604 37.7 0.484 37.64 0.396 37.592L0.744 36.632C0.928 36.736 1.208 36.852 1.584 36.98C1.96 37.108 2.42 37.172 2.964 37.172ZM26.7147 29.684V30.692H24.0987V38H22.9347V30.692H20.3187V29.684H26.7147ZM44.0154 38V34.664C43.4634 33.808 42.9434 32.964 42.4554 32.132C41.9674 31.3 41.5074 30.484 41.0754 29.684H42.4434C42.7474 30.34 43.0874 31.008 43.4634 31.688C43.8394 32.36 44.2274 33.008 44.6274 33.632C45.0194 33.008 45.4034 32.36 45.7794 31.688C46.1554 31.008 46.4994 30.34 46.8114 29.684H48.1074C47.6754 30.484 47.2154 31.3 46.7274 32.132C46.2394 32.956 45.7234 33.792 45.1794 34.64V38H44.0154ZM67.9513 36.992V38H62.9473V29.684H64.1113V36.992H67.9513ZM82.91 38V29.684H87.986V30.68H84.074V33.152H87.554V34.124H84.074V37.004H88.286V38H82.91Z" fill="white"/>
<path d="M5.76 6.98C7.82667 6.98 9.41333 7.34667 10.52 8.08C11.6267 8.8 12.18 9.98667 12.18 11.64C12.18 13.3067 11.62 14.5133 10.5 15.26C9.38 15.9933 7.78 16.36 5.7 16.36H4.72V21H1.6V7.34C2.28 7.20667 3 7.11333 3.76 7.06C4.52 7.00667 5.18667 6.98 5.76 6.98ZM5.96 9.64C5.73333 9.64 5.50667 9.64667 5.28 9.66C5.06667 9.67333 4.88 9.68667 4.72 9.7V13.7H5.7C6.78 13.7 7.59333 13.5533 8.14 13.26C8.68667 12.9667 8.96 12.42 8.96 11.62C8.96 11.2333 8.88667 10.9133 8.74 10.66C8.60667 10.4067 8.40667 10.2067 8.14 10.06C7.88667 9.9 7.57333 9.79333 7.2 9.74C6.82667 9.67333 6.41333 9.64 5.96 9.64ZM14.4711 21V7.14H23.8311V9.76H17.5911V12.48H23.1311V15.04H17.5911V18.38H24.2911V21H14.4711ZM30.66 6.98C32.74 6.98 34.3333 7.35333 35.44 8.1C36.5467 8.83333 37.1 9.98 37.1 11.54C37.1 12.5133 36.8733 13.3067 36.42 13.92C35.98 14.52 35.34 14.9933 34.5 15.34C34.78 15.6867 35.0733 16.0867 35.38 16.54C35.6867 16.98 35.9867 17.4467 36.28 17.94C36.5867 18.42 36.88 18.9267 37.16 19.46C37.44 19.98 37.7 20.4933 37.94 21H34.44C34.1867 20.5467 33.9267 20.0867 33.66 19.62C33.4067 19.1533 33.14 18.7 32.86 18.26C32.5933 17.82 32.3267 17.4067 32.06 17.02C31.7933 16.62 31.5267 16.26 31.26 15.94H29.72V21H26.6V7.34C27.28 7.20667 27.98 7.11333 28.7 7.06C29.4333 7.00667 30.0867 6.98 30.66 6.98ZM30.84 9.64C30.6133 9.64 30.4067 9.64667 30.22 9.66C30.0467 9.67333 29.88 9.68667 29.72 9.7V13.46H30.6C31.7733 13.46 32.6133 13.3133 33.12 13.02C33.6267 12.7267 33.88 12.2267 33.88 11.52C33.88 10.84 33.62 10.36 33.1 10.08C32.5933 9.78667 31.84 9.64 30.84 9.64ZM39.9398 21V7.14H49.2198V9.76H43.0598V12.66H48.5398V15.28H43.0598V21H39.9398ZM51.4242 21V7.14H60.7842V9.76H54.5442V12.48H60.0842V15.04H54.5442V18.38H61.2442V21H51.4242ZM69.8731 21.28C67.6198 21.28 65.8998 20.6533 64.7131 19.4C63.5398 18.1467 62.9531 16.3667 62.9531 14.06C62.9531 12.9133 63.1331 11.8933 63.4931 11C63.8531 10.0933 64.3465 9.33333 64.9731 8.72C65.5998 8.09333 66.3465 7.62 67.2131 7.3C68.0798 6.98 69.0198 6.82 70.0331 6.82C70.6198 6.82 71.1531 6.86667 71.6331 6.96C72.1131 7.04 72.5331 7.14 72.8931 7.26C73.2531 7.36667 73.5531 7.48 73.7931 7.6C74.0331 7.72 74.2065 7.81333 74.3131 7.88L73.4131 10.4C72.9865 10.1733 72.4865 9.98 71.9131 9.82C71.3531 9.66 70.7131 9.58 69.9931 9.58C69.5131 9.58 69.0398 9.66 68.5731 9.82C68.1198 9.98 67.7131 10.24 67.3531 10.6C67.0065 10.9467 66.7265 11.4 66.5131 11.96C66.2998 12.52 66.1931 13.2 66.1931 14C66.1931 14.64 66.2598 15.24 66.3931 15.8C66.5398 16.3467 66.7665 16.82 67.0731 17.22C67.3931 17.62 67.8065 17.94 68.3131 18.18C68.8198 18.4067 69.4331 18.52 70.1531 18.52C70.6065 18.52 71.0131 18.4933 71.3731 18.44C71.7331 18.3867 72.0531 18.3267 72.3331 18.26C72.6131 18.18 72.8598 18.0933 73.0731 18C73.2865 17.9067 73.4798 17.82 73.6531 17.74L74.5131 20.24C74.0731 20.5067 73.4531 20.7467 72.6531 20.96C71.8531 21.1733 70.9265 21.28 69.8731 21.28ZM87.2316 7.14V9.8H83.0516V21H79.9316V9.8H75.7516V7.14H87.2316Z" fill="white"/>
</svg>
