<svg width="31" height="31" viewBox="0 0 31 31" fill="none" xmlns="http://www.w3.org/2000/svg">
<g clip-path="url(#clip0)">
<path d="M30.5729 28.1571L22.0513 19.6784C23.7019 17.6497 24.6958 15.0719 24.6958 12.2643C24.6958 5.75713 19.3743 0.462402 12.8342 0.462402C6.2941 0.462402 0.972656 5.75707 0.972656 12.2643C0.972656 18.7715 6.29416 24.0662 12.8343 24.0662C15.656 24.0662 18.2469 23.0773 20.2858 21.435L28.8074 29.9137C29.0509 30.156 29.3705 30.2777 29.6902 30.2777C30.0099 30.2777 30.3295 30.156 30.573 29.9137C31.0611 29.428 31.0611 28.6428 30.5729 28.1571ZM12.8343 21.5816C7.67008 21.5816 3.46985 17.4025 3.46985 12.2643C3.46985 7.12607 7.67008 2.94697 12.8343 2.94697C17.9984 2.94697 22.1987 7.12607 22.1987 12.2643C22.1987 17.4025 17.9984 21.5816 12.8343 21.5816Z" fill="white"/>
</g>
<defs>
<clipPath id="clip0">
<rect width="29.9664" height="29.8156" fill="white" transform="translate(0.972656 0.461426)"/>
</clipPath>
</defs>
</svg>
